<?xml version="1.0" encoding="iso-8859-1"?>
<!-- Generator: Adobe Illustrator 19.0.0, SVG Export Plug-In . SVG Version: 6.00 Build 0)  -->
<svg version="1.1" id="Layer_1" xmlns="http://www.w3.org/2000/svg" xmlns:xlink="http://www.w3.org/1999/xlink" x="0px" y="0px"
	 viewBox="0 0 512 512" style="enable-background:new 0 0 512 512;" xml:space="preserve">
<path style="fill:#FFFFFF;" d="M256,504C119.248,504,8,392.744,8,256S119.248,8,256,8s248,111.256,248,248S392.752,504,256,504z"/>
<path style="fill:#E2E2E2;" d="M256,16c132.336,0,240,107.664,240,240S388.336,496,256,496S16,388.336,16,256S123.664,16,256,16
	 M256,0C114.616,0,0,114.616,0,256s114.616,256,256,256s256-114.616,256-256S397.384,0,256,0L256,0z"/>
<circle style="fill:#999999;" cx="175.448" cy="276.448" r="35.248"/>
<path style="fill:#E21B1B;" d="M236.256,389.848c0,0,0,1.648,0-31.2S200.408,325.2,200.408,325.2h-49.912
	c0,0-35.848,0.4-35.848,33.448c0,32.848,0,31.2,0,31.2H236.256z"/>
<circle style="fill:#999999;" cx="336.56" cy="276.448" r="35.248"/>
<path style="fill:#E21B1B;" d="M397.352,389.848c0,0,0,1.648,0-31.2S361.504,325.2,361.504,325.2h-49.912
	c0,0-35.848,0.4-35.848,33.448c0,32.848,0,31.2,0,31.2H397.352z"/>
<circle style="fill:#999999;" cx="256" cy="109.192" r="35.248"/>
<path style="fill:#E21B1B;" d="M316.808,222.592c0,0,0,1.648,0-31.2s-35.848-33.448-35.848-33.448h-49.912
	c0,0-35.848,0.4-35.848,33.448c0,32.848,0,31.2,0,31.2H316.808z"/>
<g>
</g>
<g>
</g>
<g>
</g>
<g>
</g>
<g>
</g>
<g>
</g>
<g>
</g>
<g>
</g>
<g>
</g>
<g>
</g>
<g>
</g>
<g>
</g>
<g>
</g>
<g>
</g>
<g>
</g>
</svg>
